<svg width="33.000000" height="33.000000" viewBox="0 0 33 33" fill="none" xmlns="http://www.w3.org/2000/svg" xmlns:xlink="http://www.w3.org/1999/xlink">
	<desc>
			Created with Pixso.
	</desc>
	<defs/>
	<path id="Vector" d="M33 16.5C33 25.61 25.61 33 16.5 33C11.69 33 7.37 30.94 4.35 27.67C3.56 26.81 2.86 25.86 2.26 24.85C0.82 22.4 0 19.54 0 16.5C0 7.38 7.38 0 16.5 0C19.54 0 22.4 0.82 24.85 2.26C25.86 2.86 26.81 3.56 27.67 4.35C30.94 7.37 33 11.69 33 16.5Z" fill="#F0CD00" fill-opacity="1.000000" fill-rule="nonzero"/>
	<path id="Vector" d="M33 16.5C33 25.4 25.94 32.66 17.11 32.98C8.28 32.66 1.22 25.4 1.22 16.5C1.22 7.59 8.28 0.33 17.11 0.01C25.94 0.33 33 7.59 33 16.5Z" fill="#FFDE50" fill-opacity="1.000000" fill-rule="nonzero"/>
	<path id="Vector" d="M27.67 4.35L4.35 27.67C3.56 26.81 2.86 25.86 2.26 24.85L24.85 2.26C25.86 2.86 26.81 3.56 27.67 4.35Z" fill="#FFEA94" fill-opacity="1.000000" fill-rule="nonzero"/>
	<path id="Vector" d="M31.86 10.46L10.46 31.86C8.95 31.26 7.54 30.45 6.28 29.46L29.46 6.28C30.45 7.54 31.26 8.95 31.86 10.46Z" fill="#FFEA94" fill-opacity="1.000000" fill-rule="nonzero"/>
	<path id="Vector" d="M29.32 16.5C29.32 23.58 23.58 29.32 16.5 29.32C14.03 29.32 11.73 28.62 9.77 27.41C8.92 26.89 8.13 26.27 7.43 25.56C6.91 25.04 6.44 24.48 6.01 23.88C5.43 23.05 4.94 22.16 4.57 21.2C4.01 19.79 3.69 18.26 3.67 16.65C3.67 16.6 3.67 16.55 3.67 16.5C3.67 9.41 9.41 3.67 16.5 3.67C16.55 3.67 16.6 3.67 16.65 3.67C18.26 3.69 19.79 4.01 21.2 4.57C22.16 4.94 23.05 5.43 23.88 6.01C24.48 6.44 25.04 6.91 25.56 7.43C26.27 8.13 26.89 8.92 27.41 9.77C28.62 11.73 29.32 14.03 29.32 16.5Z" fill="#FAA300" fill-opacity="1.000000" fill-rule="nonzero"/>
	<path id="Vector" d="M25.56 7.43L7.43 25.56C6.91 25.04 6.44 24.48 6.01 23.88C5.43 23.05 4.94 22.16 4.57 21.2C4.01 19.79 3.69 18.26 3.67 16.65C3.67 16.6 3.67 16.55 3.67 16.5C3.67 9.41 9.41 3.67 16.5 3.67C16.55 3.67 16.6 3.67 16.65 3.67C18.26 3.69 19.79 4.01 21.2 4.57C22.16 4.94 23.05 5.43 23.88 6.01C24.48 6.44 25.04 6.91 25.56 7.43Z" fill="#FFBD00" fill-opacity="1.000000" fill-rule="nonzero"/>
	<path id="Vector" d="M29.32 16.5C29.32 23.58 23.58 29.32 16.49 29.32C16.25 29.32 16.01 29.31 15.77 29.3C22.51 28.92 27.87 23.33 27.87 16.5C27.87 9.66 22.51 4.07 15.77 3.69C16.01 3.68 16.25 3.67 16.49 3.67C23.58 3.67 29.32 9.41 29.32 16.5Z" fill="#F68E00" fill-opacity="1.000000" fill-rule="nonzero"/>
	<path id="Vector" d="M22.32 19.73C22.32 18.02 21.44 16.52 20.1 15.64C20.65 14.89 20.98 13.96 20.98 12.96C20.98 11.22 20.01 9.71 18.59 8.94L18.59 7.27C18.59 6.53 17.99 5.93 17.24 5.93C16.5 5.93 15.9 6.53 15.9 7.27L15.9 8.37L14.27 8.37L14.27 7.27C14.27 6.53 13.67 5.93 12.92 5.93C12.18 5.93 11.58 6.53 11.58 7.27L11.58 8.37L9.99 8.37C9.25 8.37 8.65 8.98 8.65 9.72C8.65 10.46 9.25 11.07 9.99 11.07L10.46 11.07L10.46 16.19L10.46 21.92L9.99 21.92C9.25 21.92 8.65 22.53 8.65 23.27C8.65 24.01 9.25 24.62 9.99 24.62L11.58 24.62L11.58 25.72C11.58 26.46 12.18 27.06 12.92 27.06C13.67 27.06 14.27 26.46 14.27 25.72L14.27 24.62L15.9 24.62L15.9 25.72C15.9 26.46 16.5 27.06 17.24 27.06C17.99 27.06 18.59 26.46 18.59 25.72L18.59 24.48C20.73 23.96 22.32 22.03 22.32 19.73ZM13.15 11.07L16.39 11.07C17.43 11.07 18.28 11.91 18.28 12.96C18.28 14 17.43 14.85 16.39 14.85L13.15 14.85L13.15 11.07ZM17.44 21.92L13.15 21.92L13.15 17.54L16.39 17.54L17.44 17.54C18.64 17.54 19.63 18.52 19.63 19.73C19.63 20.94 18.64 21.92 17.44 21.92Z" fill="#F68E00" fill-opacity="1.000000" fill-rule="nonzero"/>
	<path id="Vector" d="M24.01 19.73C24.01 18.02 23.12 16.52 21.79 15.64C22.34 14.89 22.66 13.96 22.66 12.96C22.66 11.22 21.7 9.71 20.27 8.94L20.27 7.27C20.27 6.53 19.67 5.93 18.93 5.93C18.18 5.93 17.58 6.53 17.58 7.27L17.58 8.37L15.96 8.37L15.96 7.27C15.96 6.53 15.35 5.93 14.61 5.93C13.86 5.93 13.26 6.53 13.26 7.27L13.26 8.37L11.68 8.37C10.93 8.37 10.33 8.98 10.33 9.72C10.33 10.46 10.93 11.07 11.68 11.07L12.14 11.07L12.14 16.19L12.14 21.92L11.68 21.92C10.93 21.92 10.33 22.53 10.33 23.27C10.33 24.01 10.93 24.62 11.68 24.62L13.26 24.62L13.26 25.72C13.26 26.46 13.86 27.06 14.61 27.06C15.35 27.06 15.96 26.46 15.96 25.72L15.96 24.62L17.58 24.62L17.58 25.72C17.58 26.46 18.18 27.06 18.93 27.06C19.67 27.06 20.27 26.46 20.27 25.72L20.27 24.48C22.41 23.96 24.01 22.03 24.01 19.73ZM14.84 11.07L18.08 11.07C19.12 11.07 19.97 11.91 19.97 12.96C19.97 14 19.12 14.85 18.08 14.85L14.84 14.85L14.84 11.07ZM19.12 21.92L14.84 21.92L14.84 17.54L18.08 17.54L19.12 17.54C20.33 17.54 21.31 18.52 21.31 19.73C21.31 20.94 20.33 21.92 19.12 21.92Z" fill="#FFEA94" fill-opacity="1.000000" fill-rule="nonzero"/>
</svg>
