<svg width="20.000122" height="20.000000" viewBox="0 0 20.0001 20" fill="none" xmlns="http://www.w3.org/2000/svg" xmlns:xlink="http://www.w3.org/1999/xlink">
	<desc>
			Created with Pixso.
	</desc>
	<defs/>
	<rect id="bitcoin_1490849 2" rx="0.000000" width="18.153847" height="18.153847" transform="translate(0.923077 0.923077)" fill="#FFFFFF" fill-opacity="0"/>
	<path id="Vector" d="M20 10C20 15.52 15.52 20 10 20C7.08 20 4.46 18.75 2.64 16.77C2.16 16.24 1.73 15.67 1.37 15.06C0.5 13.57 0 11.84 0 10C0 4.47 4.47 0 10 0C11.84 0 13.57 0.5 15.06 1.37C15.67 1.73 16.24 2.16 16.76 2.64C18.75 4.46 20 7.08 20 10Z" fill="#BDCFFF" fill-opacity="1.000000" fill-rule="nonzero"/>
	<path id="Vector" d="M20 10C20 15.39 15.72 19.79 10.37 19.99C5.02 19.79 0.74 15.39 0.74 10C0.74 4.6 5.02 0.2 10.37 0C15.72 0.2 20 4.6 20 10Z" fill="#CDDAFE" fill-opacity="1.000000" fill-rule="nonzero"/>
	<path id="Vector" d="M16.76 2.64L2.64 16.77C2.16 16.24 1.73 15.67 1.37 15.06L15.06 1.37C15.67 1.73 16.24 2.16 16.76 2.64Z" fill="#E8EEFF" fill-opacity="1.000000" fill-rule="nonzero"/>
	<path id="Vector" d="M19.31 6.34L6.34 19.31C5.42 18.94 4.57 18.45 3.81 17.85L17.85 3.81C18.45 4.57 18.95 5.42 19.31 6.34Z" fill="#E8EEFF" fill-opacity="1.000000" fill-rule="nonzero"/>
	<path id="Vector" d="M17.77 10C17.77 14.29 14.29 17.77 10 17.77C8.5 17.77 7.1 17.34 5.92 16.61C5.4 16.29 4.93 15.92 4.5 15.49C4.19 15.18 3.9 14.84 3.64 14.47C3.29 13.97 2.99 13.43 2.76 12.85C2.43 11.99 2.24 11.06 2.23 10.09C2.22 10.06 2.22 10.03 2.22 10C2.22 5.7 5.7 2.22 10 2.22C10.03 2.22 10.06 2.22 10.09 2.23C11.06 2.24 11.99 2.43 12.85 2.77C13.43 2.99 13.97 3.29 14.47 3.64C14.84 3.9 15.18 4.19 15.49 4.5C15.92 4.93 16.29 5.4 16.61 5.92C17.34 7.1 17.77 8.5 17.77 10Z" fill="#749BFF" fill-opacity="1.000000" fill-rule="nonzero"/>
	<path id="Vector" d="M15.49 4.5L4.5 15.49C4.19 15.18 3.9 14.84 3.64 14.47C3.29 13.97 2.99 13.43 2.76 12.85C2.43 11.99 2.24 11.06 2.23 10.09C2.22 10.06 2.22 10.03 2.22 10C2.22 5.7 5.7 2.22 10 2.22C10.03 2.22 10.06 2.22 10.09 2.23C11.06 2.24 11.99 2.43 12.85 2.77C13.43 2.99 13.97 3.29 14.47 3.64C14.84 3.9 15.18 4.19 15.49 4.5Z" fill="#A0BBFF" fill-opacity="1.000000" fill-rule="nonzero"/>
	<path id="Vector" d="M17.77 10C17.77 14.29 14.29 17.77 9.99 17.77C9.85 17.77 9.7 17.76 9.56 17.75C13.64 17.53 16.89 14.14 16.89 10C16.89 5.85 13.64 2.46 9.56 2.24C9.7 2.23 9.85 2.22 9.99 2.22C14.29 2.22 17.77 5.7 17.77 10Z" fill="#386FFE" fill-opacity="1.000000" fill-rule="nonzero"/>
	<path id="Vector" d="M9.35 5C9.65 4.98 9.89 5.11 9.97 5.41L9.98 5.43C10.04 5.64 10.02 5.88 10.01 6.1C10.88 6.33 11.6 6.83 11.87 7.71C11.96 7.99 12.08 8.43 11.92 8.7C11.79 8.92 11.46 9.03 11.23 8.89C10.77 8.61 11.16 7.72 10.31 7.23C9.19 6.59 7.83 7.36 8.13 8.43L8.16 8.56C8.54 9.68 9.88 9.42 10.77 9.86C12.28 10.61 12.34 12.78 10.9 13.65C10.62 13.81 10.33 13.91 10.03 14C10.06 14.38 10.07 14.66 9.72 14.91C9.01 15.22 8.86 14.61 8.91 14.07C8.11 13.92 7.38 13.19 7.11 12.47C6.67 11.31 7.61 11.14 7.86 11.58C7.93 11.71 7.96 11.85 8 11.99C8.26 12.86 8.98 13.32 9.91 13.09L9.94 13.08C11.18 12.77 11.4 10.98 10.1 10.6C9.79 10.51 9.45 10.49 9.14 10.42C6.79 9.9 6.36 7.31 8.36 6.3C8.55 6.21 8.75 6.14 8.95 6.08C8.93 5.62 8.85 5.2 9.35 5Z" fill="#386FFE" fill-opacity="1.000000" fill-rule="nonzero"/>
	<path id="Vector" d="M10.35 5C10.65 4.98 10.89 5.11 10.97 5.41L10.98 5.43C11.04 5.64 11.02 5.88 11.01 6.1C11.88 6.33 12.6 6.83 12.87 7.71C12.96 7.99 13.08 8.43 12.92 8.7C12.79 8.92 12.46 9.03 12.23 8.89C11.77 8.61 12.16 7.72 11.31 7.23C10.19 6.59 8.83 7.36 9.13 8.43L9.16 8.56C9.54 9.68 10.88 9.42 11.77 9.86C13.28 10.61 13.34 12.78 11.9 13.65C11.62 13.81 11.33 13.91 11.03 14C11.06 14.38 11.07 14.66 10.72 14.91C10.01 15.22 9.86 14.61 9.91 14.07C9.11 13.92 8.38 13.19 8.11 12.47C7.67 11.31 8.61 11.14 8.86 11.58C8.93 11.71 8.96 11.85 9 11.99C9.26 12.86 9.98 13.32 10.91 13.09L10.94 13.08C12.18 12.77 12.4 10.98 11.1 10.6C10.79 10.51 10.45 10.49 10.14 10.42C7.79 9.9 7.36 7.31 9.36 6.3C9.55 6.21 9.75 6.14 9.95 6.08C9.93 5.62 9.85 5.2 10.35 5Z" fill="#BFD1FF" fill-opacity="1.000000" fill-rule="nonzero"/>
</svg>
