<svg width="16.500000" height="12.000000" viewBox="0 0 16.5 12" fill="none" xmlns="http://www.w3.org/2000/svg" xmlns:xlink="http://www.w3.org/1999/xlink">
	<desc>
			Created with Pixso.
	</desc>
	<defs/>
	<path id="Vector" d="M4.12 12C2.98 12 2.01 11.6 1.2 10.81C0.4 10.03 0 9.06 0 7.93C0 6.95 0.29 6.08 0.88 5.32C1.46 4.56 2.23 4.07 3.18 3.86C3.5 2.71 4.12 1.78 5.06 1.06C6 0.35 7.06 0 8.25 0C9.71 0 10.95 0.5 11.97 1.52C12.99 2.54 13.5 3.78 13.5 5.25C14.36 5.35 15.07 5.72 15.64 6.36C16.21 7 16.5 7.76 16.5 8.62C16.5 9.56 16.17 10.35 15.51 11.01C14.85 11.67 14.06 12 13.12 12L4.12 12Z" fill="#FFFFFF" fill-opacity="1.000000" fill-rule="nonzero"/>
</svg>
