<svg width="13.333252" height="13.333496" viewBox="0 0 13.3333 13.3335" fill="none" xmlns="http://www.w3.org/2000/svg" xmlns:xlink="http://www.w3.org/1999/xlink">
	<desc>
			Created with Pixso.
	</desc>
	<defs/>
	<path id="Shape" d="M6.33 0C5.78 0 5.33 0.44 5.33 1L5.33 1.24C5.33 1.39 5.22 1.52 5.08 1.57C4.77 1.66 4.46 1.79 4.18 1.94C4.04 2.01 3.88 1.99 3.77 1.88L3.6 1.71C3.21 1.32 2.57 1.32 2.18 1.71L1.71 2.18C1.32 2.57 1.32 3.21 1.71 3.6L1.88 3.77C1.99 3.88 2.01 4.04 1.94 4.18C1.79 4.46 1.66 4.77 1.57 5.08C1.52 5.22 1.39 5.33 1.24 5.33L1 5.33C0.44 5.33 0 5.78 0 6.33L0 7C0 7.55 0.44 8 1 8L1.24 8C1.39 8 1.52 8.1 1.57 8.24C1.66 8.56 1.79 8.86 1.94 9.15C2.01 9.28 1.99 9.45 1.88 9.55L1.71 9.73C1.32 10.12 1.32 10.75 1.71 11.14L2.18 11.61C2.57 12 3.21 12 3.6 11.61L3.77 11.44C3.88 11.33 4.04 11.31 4.18 11.38C4.46 11.53 4.77 11.66 5.08 11.76C5.22 11.8 5.33 11.93 5.33 12.09L5.33 12.33C5.33 12.88 5.78 13.33 6.33 13.33L7 13.33C7.55 13.33 8 12.88 8 12.33L8 12.09C8 11.93 8.1 11.8 8.24 11.76C8.56 11.66 8.86 11.53 9.15 11.38C9.28 11.31 9.45 11.33 9.55 11.44L9.73 11.61C10.12 12 10.75 12 11.14 11.61L11.61 11.14C12 10.75 12 10.12 11.61 9.73L11.44 9.55C11.33 9.45 11.31 9.28 11.38 9.15C11.53 8.86 11.66 8.56 11.76 8.24C11.8 8.1 11.93 8 12.09 8L12.33 8C12.88 8 13.33 7.55 13.33 7L13.33 6.33C13.33 5.78 12.88 5.33 12.33 5.33L12.09 5.33C11.93 5.33 11.8 5.22 11.76 5.08C11.66 4.77 11.53 4.46 11.38 4.18C11.31 4.04 11.33 3.88 11.44 3.77L11.61 3.6C12 3.21 12 2.57 11.61 2.18L11.14 1.71C10.75 1.32 10.12 1.32 9.73 1.71L9.55 1.88C9.45 1.99 9.28 2.01 9.15 1.94C8.86 1.79 8.56 1.66 8.24 1.57C8.1 1.52 8 1.39 8 1.24L8 1C8 0.44 7.55 0 7 0L6.33 0ZM6.66 8.66C7.77 8.66 8.66 7.77 8.66 6.66C8.66 5.56 7.77 4.66 6.66 4.66C5.56 4.66 4.66 5.56 4.66 6.66C4.66 7.77 5.56 8.66 6.66 8.66Z" fill="#FFFFFF" fill-opacity="0.480000" fill-rule="evenodd"/>
</svg>
