<svg width="103.000000" height="4.000000" viewBox="0 0 103 4" fill="none" xmlns="http://www.w3.org/2000/svg" xmlns:xlink="http://www.w3.org/1999/xlink">
	<desc>
			Created with Pixso.
	</desc>
	<defs/>
	<line id="Line 27" x1="0.500000" y1="0.219238" x2="0.501953" y2="3.780762" stroke="#FFFFFF" stroke-opacity="0.120000" stroke-width="1.000000"/>
	<line id="Line 33" x1="6.875000" y1="0.219238" x2="6.876953" y2="3.780762" stroke="#FFFFFF" stroke-opacity="0.120000" stroke-width="1.000000"/>
	<line id="Line 34" x1="13.249756" y1="0.219238" x2="13.251709" y2="3.780762" stroke="#FFFFFF" stroke-opacity="0.120000" stroke-width="1.000000"/>
	<line id="Line 35" x1="19.624512" y1="0.219238" x2="19.626465" y2="3.780762" stroke="#FFFFFF" stroke-opacity="0.120000" stroke-width="1.000000"/>
	<line id="Line 36" x1="25.999512" y1="0.219238" x2="26.001465" y2="3.780762" stroke="#FFFFFF" stroke-opacity="0.120000" stroke-width="1.000000"/>
	<line id="Line 37" x1="32.374268" y1="0.219238" x2="32.376221" y2="3.780762" stroke="#FFFFFF" stroke-opacity="0.120000" stroke-width="1.000000"/>
	<line id="Line 38" x1="38.749268" y1="0.219238" x2="38.751221" y2="3.780762" stroke="#FFFFFF" stroke-opacity="0.120000" stroke-width="1.000000"/>
	<line id="Line 56" x1="45.124023" y1="0.219238" x2="45.125977" y2="3.780762" stroke="#FFFFFF" stroke-opacity="0.120000" stroke-width="1.000000"/>
	<line id="Line 57" x1="51.499023" y1="0.219238" x2="51.500977" y2="3.780762" stroke="#FFFFFF" stroke-opacity="0.120000" stroke-width="1.000000"/>
	<line id="Line 45" x1="57.873779" y1="0.219238" x2="57.875732" y2="3.780762" stroke="#FFFFFF" stroke-opacity="0.120000" stroke-width="1.000000"/>
	<line id="Line 46" x1="64.248779" y1="0.219238" x2="64.250732" y2="3.780762" stroke="#FFFFFF" stroke-opacity="0.120000" stroke-width="1.000000"/>
	<line id="Line 47" x1="70.623535" y1="0.219238" x2="70.625488" y2="3.780762" stroke="#FFFFFF" stroke-opacity="0.120000" stroke-width="1.000000"/>
	<line id="Line 53" x1="76.998535" y1="0.219238" x2="77.000488" y2="3.780762" stroke="#FFFFFF" stroke-opacity="0.120000" stroke-width="1.000000"/>
	<line id="Line 60" x1="83.373291" y1="0.219238" x2="83.375244" y2="3.780762" stroke="#FFFFFF" stroke-opacity="0.120000" stroke-width="1.000000"/>
	<line id="Line 61" x1="89.748291" y1="0.219238" x2="89.750244" y2="3.780762" stroke="#FFFFFF" stroke-opacity="0.120000" stroke-width="1.000000"/>
	<line id="Line 54" x1="96.123047" y1="0.219238" x2="96.125000" y2="3.780762" stroke="#FFFFFF" stroke-opacity="0.120000" stroke-width="1.000000"/>
	<line id="Line 55" x1="102.498047" y1="0.219238" x2="102.500000" y2="3.780762" stroke="#FFFFFF" stroke-opacity="0.120000" stroke-width="1.000000"/>
</svg>
