<svg width="15.000000" height="13.000000" viewBox="0 0 15 13" fill="none" xmlns="http://www.w3.org/2000/svg" xmlns:xlink="http://www.w3.org/1999/xlink">
	<desc>
			Created with Pixso.
	</desc>
	<defs/>
	<path id="Vector" d="M13.73 0.52L13.75 0.5C14.31 0.5 14.75 0.94 14.75 1.5C14.75 2.06 14.31 2.5 13.75 2.5L13.73 2.47L13.73 0.52ZM1.27 2.47L1.25 2.5C0.68 2.5 0.25 2.06 0.25 1.5C0.25 0.94 0.68 0.5 1.25 0.5L1.27 0.52L1.27 2.47Z" fill="#FFFFFF" fill-opacity="1.000000" fill-rule="nonzero"/>
	<path id="Vector" d="M13.75 1.5L1.25 1.5" stroke="#FFFFFF" stroke-opacity="1.000000" stroke-width="2.000000" stroke-linecap="round"/>
	<path id="Vector" d="M13.73 5.52L13.75 5.5C14.31 5.5 14.75 5.94 14.75 6.5C14.75 7.06 14.31 7.5 13.75 7.5L13.73 7.47L13.73 5.52ZM1.27 7.47L1.25 7.5C0.68 7.5 0.25 7.06 0.25 6.5C0.25 5.94 0.68 5.5 1.25 5.5L1.27 5.52L1.27 7.47Z" fill="#FFFFFF" fill-opacity="1.000000" fill-rule="nonzero"/>
	<path id="Vector" d="M13.75 6.5L1.25 6.5" stroke="#FFFFFF" stroke-opacity="1.000000" stroke-width="2.000000" stroke-linecap="round"/>
	<path id="Vector" d="M13.73 10.52L13.75 10.5C14.31 10.5 14.75 10.94 14.75 11.5C14.75 12.06 14.31 12.5 13.75 12.5L13.73 12.48L13.73 10.52ZM1.27 12.48L1.25 12.5C0.68 12.5 0.25 12.06 0.25 11.5C0.25 10.94 0.68 10.5 1.25 10.5L1.27 10.52L1.27 12.48Z" fill="#FFFFFF" fill-opacity="1.000000" fill-rule="nonzero"/>
	<path id="Vector" d="M13.75 11.5L1.25 11.5" stroke="#FFFFFF" stroke-opacity="1.000000" stroke-width="2.000000" stroke-linecap="round"/>
</svg>
