<svg width="18.000000" height="15.147949" viewBox="0 0 18 15.1479" fill="none" xmlns="http://www.w3.org/2000/svg" xmlns:xlink="http://www.w3.org/1999/xlink">
	<desc>
			Created with Pixso.
	</desc>
	<defs/>
	<path id="Vector" d="M10.86 2.6C11.69 3.12 12.27 4 12.38 5.02C12.72 5.18 13.1 5.27 13.5 5.27C14.95 5.27 16.13 4.09 16.13 2.64C16.13 1.18 14.95 0 13.5 0C12.05 0 10.88 1.16 10.86 2.6ZM9.13 8C10.59 8 11.77 6.82 11.77 5.36C11.77 3.9 10.59 2.72 9.13 2.72C7.67 2.72 6.49 3.9 6.49 5.36C6.49 6.82 7.67 8 9.13 8ZM10.25 8.18L8.01 8.18C6.14 8.18 4.63 9.7 4.63 11.56L4.63 14.3L4.63 14.34L4.82 14.4C6.6 14.96 8.15 15.14 9.42 15.14C11.9 15.14 13.34 14.43 13.43 14.39L13.61 14.3L13.63 14.3L13.63 11.56C13.63 9.7 12.11 8.18 10.25 8.18ZM14.62 5.45L12.39 5.45C12.37 6.34 11.99 7.14 11.39 7.72C13.05 8.21 14.26 9.75 14.26 11.56L14.26 12.41C16.45 12.33 17.72 11.71 17.8 11.66L17.98 11.58L18 11.58L18 8.83C18 6.97 16.48 5.45 14.62 5.45ZM4.5 5.28C5.01 5.28 5.49 5.12 5.9 4.87C6.03 4.02 6.48 3.29 7.13 2.78C7.13 2.73 7.14 2.69 7.14 2.64C7.14 1.18 5.95 0 4.5 0C3.04 0 1.86 1.18 1.86 2.64C1.86 4.09 3.04 5.28 4.5 5.28ZM6.87 7.72C6.27 7.15 5.89 6.35 5.86 5.47C5.78 5.46 5.7 5.45 5.61 5.45L3.38 5.45C1.51 5.45 0 6.97 0 8.83L0 11.57L0 11.62L0.19 11.68C1.62 12.12 2.89 12.33 4 12.39L4 11.56C4 9.75 5.21 8.21 6.87 7.72Z" fill="#FFFFFF" fill-opacity="0.240000" fill-rule="nonzero"/>
</svg>
