<svg width="24.041504" height="24.041504" viewBox="0 0 24.0415 24.0415" fill="none" xmlns="http://www.w3.org/2000/svg" xmlns:xlink="http://www.w3.org/1999/xlink">
	<desc>
			Created with Pixso.
	</desc>
	<defs/>
	<path id="Vector" d="M1.5 11.12C1.27 11.09 1.18 11.38 1.37 11.52C1.66 11.74 2.02 11.98 2.36 12.11C3.19 12.44 4.18 12.56 4.38 12.48C4.58 12.4 4.12 12.86 3.83 12.97C3.59 13.05 3.33 13.05 3.1 13C2.88 12.96 2.77 13.22 2.93 13.38C2.95 13.4 2.97 13.42 2.99 13.44C3.15 13.58 3.81 14.18 4.74 14.5C5.76 14.86 6.68 14.74 7.27 14.59C7.47 14.54 7.48 14.27 7.29 14.17C6.5 13.74 5.97 12.88 6.02 12C6.05 11.21 6.54 10.56 7.25 10.29C7.44 10.22 7.42 9.94 7.22 9.87C6.7 9.68 6.1 9.57 5.51 9.71C4.74 9.9 4.51 10.39 3.76 10.77C3.28 11.02 2.56 11.23 1.5 11.12Z" fill="#FFFFFF" fill-opacity="1.000000" fill-rule="nonzero"/>
	<path id="Vector" d="M23.65 12.04C23.7 11.96 23.69 11.86 23.64 11.78C21.18 8.6 17.95 7.04 13.96 7.13C13.88 7.13 13.79 7.08 13.76 7C13.72 6.93 13.68 6.85 13.64 6.78C13.63 6.77 13.62 6.75 13.61 6.74C13.61 6.72 13.6 6.71 13.6 6.7C13.15 5.92 12.44 5.26 11.44 4.73C11.41 4.72 11.38 4.71 11.35 4.71C9.66 4.58 8.01 5.03 6.37 5.67C6.23 5.72 6.19 5.87 6.24 5.98C6.65 6.11 7.02 6.25 7.36 6.4C8.52 6.81 9.37 7.33 9.63 8.06C9.67 8.15 9.64 8.26 9.56 8.32C8.96 8.78 8.46 9.26 8.05 9.76C8.03 9.78 8.02 9.81 8.01 9.84C7.53 11.36 7.59 12.81 8.05 14.24C8.06 14.26 8.07 14.28 8.09 14.31C8.5 14.86 8.99 15.34 9.56 15.73C9.65 15.8 9.68 15.92 9.63 16.02C9.48 16.32 9.27 16.58 9.01 16.8C8.38 17.34 7.46 17.69 6.43 17.97C6.22 18.02 6.2 18.32 6.41 18.4C6.49 18.43 6.58 18.47 6.67 18.5C8.21 19.08 9.78 19.47 11.37 19.35C11.41 19.35 11.44 19.34 11.46 19.32C12.6 18.73 13.35 17.96 13.79 17.05C13.83 16.97 13.91 16.92 14 16.92C16.25 16.97 18.27 16.51 20.03 15.51C20.43 15.27 20.82 15.02 21.2 14.73C22.6 13.66 23.41 12.44 23.65 12.04ZM15.43 13.32C14.7 12.59 14.7 11.41 15.43 10.68C16.16 9.96 17.34 9.95 18.06 10.68C18.79 11.41 18.79 12.59 18.06 13.31C17.33 14.04 16.15 14.04 15.43 13.32Z" fill="#FFFFFF" fill-opacity="1.000000" fill-rule="nonzero"/>
</svg>
