<svg width="18.518555" height="14.814819" viewBox="0 0 18.5186 14.8148" fill="none" xmlns="http://www.w3.org/2000/svg" xmlns:xlink="http://www.w3.org/1999/xlink">
	<desc>
			Created with Pixso.
	</desc>
	<defs/>
	<path id="Shape" d="M0.3 1.51C0 2.11 0 2.88 0 4.44L0 10.37C0 11.92 0 12.7 0.3 13.29C0.56 13.82 0.99 14.24 1.51 14.51C2.11 14.81 2.88 14.81 4.44 14.81L14.07 14.81C15.62 14.81 16.4 14.81 17 14.51C17.52 14.24 17.94 13.82 18.21 13.29C18.51 12.7 18.51 11.92 18.51 10.37C18.51 10.26 18.43 10.18 18.33 10.18L13.88 10.18C12.35 10.18 11.11 8.94 11.11 7.4C11.11 5.87 12.35 4.62 13.88 4.62L18.33 4.62C18.43 4.62 18.51 4.54 18.51 4.44C18.51 2.88 18.51 2.11 18.21 1.51C17.94 0.99 17.52 0.56 17 0.3C16.4 0 15.62 0 14.07 0L4.44 0C2.88 0 2.11 0 1.51 0.3C0.99 0.56 0.56 0.99 0.3 1.51Z" fill="#FFFFFF" fill-opacity="1.000000" fill-rule="evenodd"/>
	<path id="Shape" d="M14.81 7.4C14.81 7.91 14.39 8.33 13.88 8.33C13.37 8.33 12.96 7.91 12.96 7.4C12.96 6.89 13.37 6.48 13.88 6.48C14.39 6.48 14.81 6.89 14.81 7.4Z" fill="#FFFFFF" fill-opacity="1.000000" fill-rule="nonzero"/>
</svg>
