<svg width="24.000000" height="20.300568" viewBox="0 0 24 20.3006" fill="none" xmlns="http://www.w3.org/2000/svg" xmlns:xlink="http://www.w3.org/1999/xlink">
	<desc>
			Created with Pixso.
	</desc>
	<defs/>
	<path id="Vector" d="M14.08 0C12.98 -0.11 11.92 0.77 11.91 1.89C11.89 2.99 12.88 3.65 13.58 4.36C14.89 5.7 16.24 6.99 17.54 8.34L3.33 8.34C2.36 8.34 1.26 8.15 0.51 8.92C-0.22 9.67 -0.17 10.91 0.61 11.62C1.36 12.3 2.55 12.12 3.49 12.12L17.41 12.1C17.48 12.1 17.55 12.1 17.6 12.15L17.54 12.22C16.18 13.54 13.54 15.91 12.44 17.36C11.63 18.45 12.17 20 13.56 20.26C14.86 20.51 15.62 19.38 16.43 18.59L22.38 12.66C24.53 10.52 24.55 9.9 22.33 7.68L16.89 2.22C16.09 1.41 15.28 0.2 14.08 0Z" fill="#FFFFFF" fill-opacity="1.000000" fill-rule="nonzero"/>
</svg>
