<svg width="35.000000" height="33.000000" viewBox="0 0 35 33" fill="none" xmlns="http://www.w3.org/2000/svg">
	<defs>
		<filter id="filter_2999_779_dd" x="0.000000" y="0.000000" width="35.000000" height="33.000000" filterUnits="userSpaceOnUse" color-interpolation-filters="sRGB">
			<feFlood flood-opacity="0" result="BackgroundImageFix"/>
			<feColorMatrix in="SourceAlpha" type="matrix" values="0 0 0 0 0 0 0 0 0 0 0 0 0 0 0 0 0 0 127 0" result="hardAlpha"/>
			<feOffset dx="0" dy="2"/>
			<feGaussianBlur stdDeviation="2.66667"/>
			<feComposite in2="hardAlpha" operator="out" k2="-1" k3="1"/>
			<feColorMatrix type="matrix" values="0 0 0 0 0 0 0 0 0 0 0 0 0 0 0 0 0 0 0.25 0"/>
			<feBlend mode="normal" in2="BackgroundImageFix" result="effect_dropShadow_1"/>
			<feBlend mode="normal" in="SourceGraphic" in2="effect_dropShadow_1" result="shape"/>
		</filter>
	</defs>
	<g filter="url(#filter_2999_779_dd)">
		<path id="Vector" d="M21.07 9.26L21.07 9.23C21.47 8.84 22.09 8.84 22.49 9.23C22.88 9.63 22.88 10.25 22.49 10.65L22.46 10.65L21.07 9.26ZM13.65 19.46L13.65 19.49C13.25 19.88 12.63 19.88 12.23 19.49C11.84 19.09 11.84 18.47 12.23 18.07L12.26 18.07L13.65 19.46Z" fill="#FFFFFF" fill-opacity="1.000000" fill-rule="nonzero"/>
		<path id="Vector" d="M21.78 9.94L12.94 18.78" stroke="#FFFFFF" stroke-opacity="1.000000" stroke-width="2.000000" stroke-linecap="round"/>
		<path id="Vector" d="M22.59 18.21L22.62 18.21C23.02 18.6 23.02 19.23 22.62 19.62C22.23 20.02 21.6 20.02 21.21 19.62L21.21 19.59L22.59 18.21ZM12.4 10.78L12.37 10.78C11.97 10.39 11.97 9.76 12.37 9.37C12.76 8.97 13.39 8.97 13.78 9.37L13.78 9.4L12.4 10.78Z" fill="#FFFFFF" fill-opacity="1.000000" fill-rule="nonzero"/>
		<path id="Vector" d="M21.91 18.91L13.08 10.08" stroke="#FFFFFF" stroke-opacity="1.000000" stroke-width="2.000000" stroke-linecap="round"/>
	</g>
</svg>
