<svg width="12.863953" height="12.864258" viewBox="0 0 12.864 12.8643" fill="none" xmlns="http://www.w3.org/2000/svg" xmlns:xlink="http://www.w3.org/1999/xlink">
	<desc>
			Created with Pixso.
	</desc>
	<defs/>
	<path id="Vector" d="M10.07 1.26L10.07 1.23C10.47 0.84 11.09 0.84 11.49 1.23C11.88 1.63 11.88 2.25 11.49 2.65L11.46 2.65L10.07 1.26ZM2.65 11.46L2.65 11.49C2.25 11.88 1.63 11.88 1.23 11.49C0.84 11.09 0.84 10.47 1.23 10.07L1.26 10.07L2.65 11.46Z" fill="#FFFFFF" fill-opacity="1.000000" fill-rule="nonzero"/>
	<path id="Vector" d="M10.78 1.94L1.94 10.78" stroke="#FFFFFF" stroke-opacity="1.000000" stroke-width="2.000000" stroke-linecap="round"/>
	<path id="Vector" d="M11.59 10.21L11.62 10.21C12.02 10.6 12.02 11.23 11.62 11.62C11.23 12.02 10.6 12.02 10.21 11.62L10.21 11.59L11.59 10.21ZM1.4 2.78L1.37 2.78C0.97 2.39 0.97 1.76 1.37 1.37C1.76 0.97 2.39 0.97 2.78 1.37L2.78 1.4L1.4 2.78Z" fill="#FFFFFF" fill-opacity="1.000000" fill-rule="nonzero"/>
	<path id="Vector" d="M10.91 10.91L2.08 2.08" stroke="#FFFFFF" stroke-opacity="1.000000" stroke-width="2.000000" stroke-linecap="round"/>
</svg>
